<svg width="204" height="180" viewBox="0 0 204 180" fill="none" xmlns="http://www.w3.org/2000/svg">
<path d="M61.4 65C61.4 83 76.25 91.4 91.25 94.7L104.75 97.55C118.25 100.7 128.15 105.2 128.15 116.75C128.15 127.55 119 135.05 102.8 135.05C86 135.05 75.65 127.25 72.8 112.25H57.8C60.65 133.85 76.85 147.95 102.5 147.95C124.1 147.95 143.9 136.55 143.9 115.4C143.9 93.5 123.95 87.2 107.3 83.6L94.7 80.75C84.5 78.5 77 73.7 77 64.1C77 51.95 91.7 48.2 100.1 48.2C110.9 48.2 123.5 52.55 127.1 65H141.95C137.6 44.15 120.35 35.3 100.7 35.3C83.15 35.3 61.4 44.15 61.4 65Z" fill="#262626"/>
<path d="M17.3431 90.6049C17.3431 116.233 23.9226 146.899 41.1478 155.547L40.6174 157.015C34.0377 154.635 23.9229 148.109 15.379 136.822C8.28865 127.797 0 112.384 0 90.6049C0 68.8252 8.28865 53.2939 15.379 44.2687C23.9229 32.9821 34.0573 26.476 40.6174 24.0759L41.1478 25.5438C23.6673 34.1723 17.3431 65.2548 17.3431 90.6049Z" fill="#262626"/>
<path d="M162.53 23.8704C169.11 26.2705 179.225 32.7766 187.769 44.0632C194.879 53.0884 203.148 68.5007 203.148 90.3994C203.148 112.298 194.859 127.571 187.769 136.617C179.225 147.903 169.09 154.409 162.53 156.809L162 155.342C179.225 146.713 185.805 116.027 185.805 90.3994C185.805 64.7716 179.5 33.9668 162 25.3382L162.53 23.8704Z" fill="#262626"/>
</svg>
